<?xml version="1.0" encoding="UTF-8"?>
<svg width="47.279cm" height="47.28cm" version="1.1" viewBox="0 0 472.79 472.8" xmlns="http://www.w3.org/2000/svg" xmlns:cc="http://creativecommons.org/ns#" xmlns:dc="http://purl.org/dc/elements/1.1/" xmlns:rdf="http://www.w3.org/1999/02/22-rdf-syntax-ns#">
  <metadata>
    <rdf:RDF>
      <cc:Work rdf:about="">
        <dc:format>image/svg+xml</dc:format>
        <dc:type rdf:resource="http://purl.org/dc/dcmitype/StillImage"/>
        <dc:title/>
      </cc:Work>
    </rdf:RDF>
  </metadata>
  <g transform="translate(-353.2 236.56)">
    <polygon transform="matrix(10.217 0 0 10.217 237.11 -332.22)" points="30.958 32.599 17.914 44.893 17.358 44.386 17.258 20.718 17.772 20.172" fill="#fff"/>
    <polygon transform="matrix(10.217 0 0 10.217 237.11 -332.22)" points="28.561 9.362 17.763 20.162 17.772 20.172 30.379 32.053 30.958 32.599 30.379 33.145 17.914 44.893 28.654 55.638 51.742 32.55" fill="#504999"/>
    <polygon transform="matrix(10.217 0 0 10.217 237.11 -332.22)" points="17.258 20.718 29.864 32.599 17.358 44.386" fill="#c8c8c8"/>
    <polygon transform="matrix(10.217 0 0 10.217 237.11 -332.22)" points="18.807 44.052 31.847 41.483 27.743 35.628" fill="#38257a"/>
  </g>
</svg>
